<?xml version="1.0" standalone="no"?>
<!DOCTYPE svg PUBLIC "-//W3C//DTD SVG 20010904//EN"
 "http://www.w3.org/TR/2001/REC-SVG-20010904/DTD/svg10.dtd">
<svg version="1.0" xmlns="http://www.w3.org/2000/svg"
 width="3508.000000pt" height="2480.000000pt" viewBox="0 0 3508.000000 2480.000000"
 preserveAspectRatio="xMidYMid meet">

<g transform="translate(0.000000,2480.000000) scale(0.100000,-0.100000)"
fill="#000000" stroke="none">
<path d="M26443 14228 c-23 -11 -398 -476 -391 -484 7 -7 455 382 468 406 16
30 12 58 -12 74 -26 18 -35 19 -65 4z"/>
<path d="M18361 12282 c-250 -664 -471 -1245 -492 -1290 -91 -198 -224 -328
-397 -388 l-67 -23 424 0 c233 -1 422 1 420 3 -2 2 -31 9 -63 15 -165 30 -262
119 -273 250 -7 77 2 105 181 586 87 231 224 603 306 826 166 450 210 558 246
606 44 58 70 42 131 -82 39 -77 680 -1886 689 -1943 9 -57 -16 -121 -65 -165
-36 -33 -131 -76 -169 -78 -9 0 -26 -4 -37 -9 -11 -5 197 -9 490 -8 l510 0
-70 22 c-149 47 -256 139 -324 278 -22 45 -252 650 -511 1343 -259 693 -472
1261 -473 1262 -2 1 -207 -541 -456 -1205z"/>
<path d="M11911 12568 c-567 -1506 -598 -1588 -642 -1661 -53 -89 -161 -202
-235 -247 -32 -19 -88 -45 -124 -57 l-65 -22 425 0 425 1 -85 21 c-47 12 -107
35 -133 50 -96 56 -141 161 -118 275 6 33 77 234 157 448 80 214 222 598 315
854 213 580 254 670 300 670 25 0 71 -66 107 -153 17 -40 173 -475 348 -967
293 -823 318 -900 319 -961 0 -54 -4 -72 -26 -105 -31 -47 -105 -90 -198 -115
-65 -17 -61 -17 444 -17 500 0 509 0 454 17 -142 45 -275 154 -335 277 -16 33
-243 631 -504 1331 -261 700 -477 1273 -481 1273 -3 0 -160 -411 -348 -912z"/>
<path d="M8056 13382 c99 -33 145 -67 175 -129 l24 -48 3 -1203 2 -1203 -21
-49 c-31 -72 -83 -115 -171 -140 -40 -12 -77 -23 -83 -25 -27 -9 1235 -4 1326
6 368 37 667 217 878 527 168 248 266 655 246 1017 -41 731 -272 1062 -840
1205 -229 58 -301 63 -990 67 l-630 3 81 -28z m1157 -33 c153 -20 264 -57 414
-138 210 -114 359 -329 432 -624 85 -348 75 -880 -24 -1222 -114 -392 -344
-633 -682 -712 -64 -15 -120 -18 -303 -18 -147 0 -245 5 -281 13 -82 19 -141
60 -170 118 l-24 49 -3 1272 -2 1272 147 4 c189 5 396 -1 496 -14z"/>
<path d="M14431 13396 c138 -37 239 -154 295 -341 17 -56 18 -133 21 -1064 3
-702 0 -1021 -7 -1058 -17 -80 -64 -165 -123 -221 -67 -63 -118 -89 -221 -112
l-81 -18 465 0 c417 0 457 1 387 13 -43 7 -102 25 -131 39 -66 32 -142 106
-178 172 -60 110 -58 80 -58 1129 0 536 4 977 10 999 5 21 18 48 29 59 18 18
23 19 44 8 14 -7 420 -559 903 -1227 l879 -1213 5 1257 c6 1391 1 1289 70
1409 50 86 127 131 279 163 l86 18 -459 1 c-253 1 -457 -1 -455 -3 2 -2 42
-11 89 -20 102 -21 183 -56 228 -99 42 -40 86 -125 101 -195 14 -69 16 -1738
1 -1776 -16 -42 -61 -35 -113 17 -23 24 -373 501 -777 1060 l-735 1016 -300 0
c-256 0 -293 -2 -254 -13z"/>
<path d="M20822 13391 c169 -54 292 -205 332 -403 23 -110 24 -1946 2 -2050
-41 -189 -150 -304 -326 -342 -60 -13 -28 -14 375 -14 296 0 429 3 405 10
-182 49 -245 83 -297 161 -36 54 -70 139 -84 211 -14 74 -12 1924 2 1967 26
75 63 88 105 36 14 -18 297 -564 629 -1213 332 -648 607 -1178 611 -1177 4 1
238 532 519 1181 282 649 522 1194 534 1211 12 17 31 31 41 31 46 0 45 17 45
-1125 l0 -1080 -27 -51 c-49 -93 -89 -117 -246 -148 -60 -12 -20 -14 383 -14
320 1 434 3 395 10 -153 27 -199 53 -219 124 -8 27 -11 412 -11 1235 0 1299
-2 1246 55 1329 32 46 89 85 159 110 l51 19 -249 -2 -249 -2 -453 -1035 c-249
-569 -465 -1059 -481 -1089 -77 -147 -169 -147 -260 1 -21 34 -277 525 -568
1092 l-531 1031 -349 2 -350 2 57 -18z"/>
<path d="M25040 13399 c167 -30 212 -55 257 -141 l28 -53 3 -1184 c3 -1345 8
-1256 -76 -1340 -49 -49 -92 -66 -227 -90 -31 -5 338 -9 951 -10 l1002 -1 16
63 c8 34 47 182 85 330 38 147 67 267 65 267 -2 0 -12 -17 -23 -38 -52 -101
-237 -309 -346 -387 -196 -140 -379 -187 -740 -189 -216 -1 -221 -1 -270 24
-62 31 -110 92 -124 160 -7 34 -11 251 -11 635 l0 585 163 0 c93 -1 195 -7
240 -15 185 -33 333 -148 378 -295 4 -14 7 137 7 335 1 311 -1 354 -12 318
-19 -59 -48 -103 -105 -156 -108 -101 -227 -136 -488 -144 l-183 -6 0 652 0
651 98 0 c356 -1 660 -37 805 -96 128 -51 232 -148 362 -337 37 -54 69 -97 71
-95 1 2 -26 120 -62 263 -35 143 -67 270 -69 283 l-5 22 -918 -1 c-523 -1
-898 -5 -872 -10z"/>
</g>
</svg>
