<svg width="29" height="143" viewBox="0 0 29 143" fill="none" xmlns="http://www.w3.org/2000/svg">
<path d="M22.1045 139.764H10.0365V142.48H7.01249V139.764H6.14449C4.44582 139.764 3.13916 139.26 2.22449 138.252C1.29116 137.226 0.824491 135.891 0.824491 134.248C0.824491 134.024 0.843158 133.772 0.880492 133.492C0.899158 133.212 0.927158 132.979 0.964491 132.792H3.87649C3.83916 132.96 3.82049 133.147 3.82049 133.352C3.80182 133.539 3.79249 133.698 3.79249 133.828C3.79249 134.631 3.99782 135.266 4.40849 135.732C4.80049 136.18 5.37916 136.404 6.14449 136.404H7.01249V132.988H10.0365V136.404H22.1045V139.764ZM22.4405 125.34C22.4405 126.46 22.1792 127.449 21.6565 128.308C21.1338 129.166 20.4152 129.838 19.5005 130.324C18.5858 130.809 17.5498 131.052 16.3925 131.052H7.01249L7.01249 127.692H15.9725C16.9992 127.692 17.8205 127.402 18.4365 126.824C19.0338 126.226 19.3325 125.442 19.3325 124.472C19.3325 123.52 19.0338 122.754 18.4365 122.176C17.8205 121.578 16.9992 121.28 15.9725 121.28H7.01249V117.92H22.1045V121.112H20.3405C21.0125 121.522 21.5352 122.101 21.9085 122.848C22.2632 123.576 22.4405 124.406 22.4405 125.34ZM22.1045 114.666H7.01249V111.502H8.80449C8.11382 111.073 7.59116 110.485 7.23649 109.738C6.86316 108.992 6.67649 108.152 6.67649 107.218C6.67649 106.098 6.91916 105.118 7.40449 104.278C7.88982 103.42 8.55249 102.748 9.39249 102.262C10.2325 101.777 11.2032 101.534 12.3045 101.534H22.1045V104.894H13.1445C12.1178 104.894 11.3058 105.193 10.7085 105.79C10.0925 106.369 9.78449 107.134 9.78449 108.086C9.78449 109.057 10.0925 109.841 10.7085 110.438C11.3245 111.017 12.1365 111.306 13.1445 111.306H22.1045L22.1045 114.666ZM22.4405 91.6448C22.4405 93.1195 22.0952 94.4448 21.4045 95.6208C20.7138 96.7968 19.7712 97.7208 18.5765 98.3928C17.3818 99.0648 16.0378 99.4008 14.5445 99.4008C13.0325 99.4008 11.6885 99.0648 10.5125 98.3928C9.33649 97.7208 8.40316 96.7968 7.71249 95.6208C7.02183 94.4448 6.67649 93.1195 6.67649 91.6448C6.67649 90.5808 6.86316 89.6008 7.23649 88.7048C7.60982 87.7901 8.12316 87.0061 8.77649 86.3528C9.42983 85.6808 10.1765 85.1955 11.0165 84.8968L12.4725 87.8088C11.6512 88.1075 10.9978 88.5928 10.5125 89.2648C10.0272 89.9368 9.78449 90.7301 9.78449 91.6448C9.78449 92.4661 9.98982 93.2035 10.4005 93.8568C10.8112 94.4915 11.3805 94.9955 12.1085 95.3688C12.8178 95.7235 13.6392 95.9008 14.5725 95.9008C15.4872 95.9008 16.3085 95.7235 17.0365 95.3688C17.7458 94.9955 18.3058 94.4915 18.7165 93.8568C19.1272 93.2035 19.3325 92.4661 19.3325 91.6448C19.3325 90.7301 19.0898 89.9368 18.6045 89.2648C18.1192 88.5928 17.4658 88.1075 16.6445 87.8088L18.1285 84.8968C18.9498 85.1955 19.6872 85.6715 20.3405 86.3248C20.9938 86.9781 21.5072 87.7621 21.8805 88.6768C22.2538 89.5915 22.4405 90.5808 22.4405 91.6448ZM22.2725 75.9521C22.2725 77.6508 21.8152 78.9575 20.9005 79.8721C19.9858 80.7868 18.6978 81.2441 17.0365 81.2441H10.0365V83.9881H7.01249V83.5401C7.01249 82.8121 6.81649 82.2521 6.42449 81.8601C6.03249 81.4495 5.47249 81.2441 4.74449 81.2441H2.33649V77.8841H7.01249V74.3001H10.0365V77.8841H17.0365C17.4658 77.8841 17.8765 77.8095 18.2685 77.6601C18.6418 77.5108 18.9498 77.2495 19.1925 76.8761C19.4165 76.4841 19.5285 75.9335 19.5285 75.2241C19.5285 74.9068 19.5005 74.5708 19.4445 74.2161H22.1325C22.1885 74.4775 22.2258 74.7668 22.2445 75.0841C22.2632 75.4015 22.2725 75.6908 22.2725 75.9521ZM5.02449 71.958H1.24449L1.24449 68.598H5.02449L5.02449 71.958ZM22.1045 71.958H7.01249L7.01249 68.598H22.1045V71.958ZM22.4405 58.3909C22.4405 59.8655 22.1045 61.2095 21.4325 62.4229C20.7418 63.6175 19.8085 64.5695 18.6325 65.2789C17.4378 65.9695 16.0752 66.3149 14.5445 66.3149C13.0325 66.3149 11.6885 65.9695 10.5125 65.2789C9.31782 64.5695 8.38449 63.6175 7.71249 62.4229C7.02183 61.2282 6.67649 59.8842 6.67649 58.3909C6.67649 56.9162 7.02183 55.5815 7.71249 54.3869C8.38449 53.1922 9.31782 52.2402 10.5125 51.5309C11.6885 50.8215 13.0325 50.4669 14.5445 50.4669C16.0752 50.4669 17.4378 50.8215 18.6325 51.5309C19.8085 52.2402 20.7418 53.2015 21.4325 54.4149C22.1045 55.6095 22.4405 56.9349 22.4405 58.3909ZM19.3325 58.3909C19.3325 57.5509 19.1272 56.7949 18.7165 56.1229C18.3058 55.4509 17.7458 54.9282 17.0365 54.5549C16.3085 54.1629 15.4872 53.9669 14.5725 53.9669C13.6578 53.9669 12.8365 54.1629 12.1085 54.5549C11.3805 54.9282 10.8112 55.4509 10.4005 56.1229C9.98982 56.7949 9.78449 57.5509 9.78449 58.3909C9.78449 59.2495 9.98982 60.0149 10.4005 60.6869C10.8112 61.3589 11.3805 61.8815 12.1085 62.2549C12.8365 62.6282 13.6578 62.8149 14.5725 62.8149C15.4872 62.8149 16.3085 62.6282 17.0365 62.2549C17.7458 61.8815 18.3058 61.3589 18.7165 60.6869C19.1272 60.0149 19.3325 59.2495 19.3325 58.3909ZM22.1045 48.0843H7.01249V44.9203H8.80449C8.11382 44.4909 7.59116 43.9029 7.23649 43.1563C6.86316 42.4096 6.67649 41.5696 6.67649 40.6363C6.67649 39.5163 6.91916 38.5363 7.40449 37.6963C7.88982 36.8376 8.55249 36.1656 9.39249 35.6803C10.2325 35.1949 11.2032 34.9523 12.3045 34.9523H22.1045V38.3123H13.1445C12.1178 38.3123 11.3058 38.6109 10.7085 39.2083C10.0925 39.7869 9.78449 40.5523 9.78449 41.5043C9.78449 42.4749 10.0925 43.2589 10.7085 43.8563C11.3245 44.4349 12.1365 44.7243 13.1445 44.7243H22.1045V48.0843ZM5.02449 32.0908H1.24449V28.7308H5.02449V32.0908ZM22.1045 32.0908H7.01249V28.7308H22.1045V32.0908ZM22.2725 18.8037C22.2725 20.5024 21.8152 21.809 20.9005 22.7237C19.9858 23.6384 18.6978 24.0957 17.0365 24.0957H10.0365V26.8397H7.01249V26.3917C7.01249 25.6637 6.81649 25.1037 6.42449 24.7117C6.03249 24.301 5.47249 24.0957 4.74449 24.0957H2.33649V20.7357H7.01249V17.1517H10.0365V20.7357H17.0365C17.4658 20.7357 17.8765 20.661 18.2685 20.5117C18.6418 20.3624 18.9498 20.101 19.1925 19.7277C19.4165 19.3357 19.5285 18.785 19.5285 18.0757C19.5285 17.7584 19.5005 17.4224 19.4445 17.0677H22.1325C22.1885 17.329 22.2258 17.6184 22.2445 17.9357C22.2632 18.253 22.2725 18.5424 22.2725 18.8037ZM28.2645 13.0175C28.2645 13.4282 28.2365 13.8295 28.1805 14.2215C28.1245 14.5949 28.0218 14.9309 27.8725 15.2295H25.0445C25.1005 15.0242 25.1472 14.7629 25.1845 14.4455C25.2405 14.1095 25.2685 13.7922 25.2685 13.4935C25.2685 12.8589 25.1565 12.3642 24.9325 12.0095C24.7272 11.6362 24.4658 11.3562 24.1485 11.1695C23.8312 10.9642 23.5232 10.7962 23.2245 10.6655L22.0485 10.1615L7.01249 16.0975V12.4295L17.6805 8.36953L7.01249 4.30953V0.641533L23.8685 7.36153C24.2792 7.52953 24.7365 7.7442 25.2405 8.00553C25.7445 8.2482 26.2205 8.5842 26.6685 9.01353C27.1352 9.44287 27.5178 9.9842 27.8165 10.6375C28.1152 11.2722 28.2645 12.0655 28.2645 13.0175Z" fill="#0A0A0A"/>
</svg>
