<svg viewBox="0 0 1920 1080" version="1.1" xmlns="http://www.w3.org/2000/svg" title="animated image from https://www.brandevolutionco.com/" desc="Created using Brand Evolution svg converter at https://www.brandevolutionco.com/animate/" class="animate-svg"><defs><style>.animate-svg path{-webkit-animation:draw ease-in-out forwards;animation:draw ease-in-out forwards;stroke:#000}.animate-svg{-webkit-animation:fillopacity 3 ease-in-out forwards;animation:fillopacity 3s ease-in-out forwards}@-webkit-keyframes draw{100%{stroke-dashoffset:0}}@keyframes draw{100%{stroke-dashoffset:0}}@-webkit-keyframes fillopacity{0%,70%{fill-opacity:0;stroke-width:0.5%}100%{fill-opacity:1;stroke-width:0}}@keyframes fillopacity{0%,70%{fill-opacity:0;stroke-width:0.5%}100%{fill-opacity:1;stroke-width:0}}</style></defs><path fill="rgb(87,87,87)" stroke="rgb(87,87,87)" stroke-width="null" opacity="0.9411764705882353" d="M 1295.5 429 Q 1303.8 426.8 1306 430.5 L 1414 672.5 L 1416 680 L 1403.5 680 L 1403 677.5 L 1300.5 447 Q 1248.7 557.7 1201 672.5 L 1196.5 680 L 1184.5 680 L 1184 677.5 L 1291 436.5 L 1295.5 429 Z " style="stroke-dasharray: 1093.66; stroke-dashoffset: 1093.66; animation-delay: 0s; animation-duration: 1.47s;"></path><path fill="rgb(87,87,87)" stroke="rgb(87,87,87)" stroke-width="null" opacity="0.9411764705882353" d="M 45 438 L 56.5 438 L 57 439.5 L 236.5 664 Q 235.8 548.7 238 438 L 249.5 438 L 250 438.5 L 250 688 L 239.5 687 L 237 684.5 L 57.5 459 L 57 688 L 45.5 688 L 45 687.5 L 45 438 Z " style="stroke-dasharray: 1581.25; stroke-dashoffset: 1581.25; animation-delay: 0.142857s; animation-duration: 1.12968s;"></path><path fill="rgb(87,87,87)" stroke="rgb(87,87,87)" stroke-width="null" opacity="0.9411764705882353" d="M 506.5 438 L 518.5 438 L 519 439.5 L 621 671 Q 623.7 672.1 623 669.5 L 725 438 L 740.5 438 L 742 439.5 L 844 671 Q 847 672.3 846 668.5 L 948 438 L 963.5 438 L 965 439.5 Q 1014.6 556.9 1067.5 671 L 1071 665.5 L 1157 468.5 L 1171.5 438 L 1182.5 438 L 1184 439.5 L 1073 689 L 1062.5 689 L 1061 687.5 L 964 468.5 L 955.5 452 L 850 689 L 839.5 689 L 838 687.5 L 734 452 Q 731.3 450.9 732 453.5 L 626.5 689 L 616.5 689 L 616 687.5 L 505 439.5 L 506.5 438 Z " style="stroke-dasharray: 3210.24; stroke-dashoffset: 3210.24; animation-delay: 0.285714s; animation-duration: 0.88942s;"></path><path fill="rgb(87,87,87)" stroke="rgb(87,87,87)" stroke-width="null" opacity="0.9411764705882353" d="M 1417 438 L 1429.5 438 L 1430 439.5 L 1532 668.5 L 1532 671 Q 1534.7 672.1 1534 669.5 Q 1584.5 560 1632 447.5 L 1637.5 438 L 1648.5 438 L 1649 440.5 L 1547 670.5 L 1537.5 689 L 1527.5 689 L 1527 687.5 L 1420 448.5 L 1417 438 Z " style="stroke-dasharray: 1094.94; stroke-dashoffset: 1094.94; animation-delay: 0.428571s; animation-duration: 1.46863s;"></path><path fill="rgb(87,87,87)" stroke="rgb(87,87,87)" stroke-width="null" opacity="0.9411764705882353" d="M 299 439 L 473.5 439 L 474 439.5 L 474 450 L 311 450 L 311 676 L 475.5 676 L 476 676.5 L 476 687 L 299 687 L 299 439 Z " style="stroke-dasharray: 1175.41; stroke-dashoffset: 1175.41; animation-delay: 0.571429s; animation-duration: 1.38937s;"></path><path fill="rgb(87,87,87)" stroke="rgb(87,87,87)" stroke-width="null" opacity="0.9411764705882353" d="M 1682 439 L 1857 439 L 1857 687 L 1680.5 687 L 1680 686.5 L 1680 676 L 1845 676 L 1845 450 L 1682.5 450 L 1682 449.5 L 1682 439 Z " style="stroke-dasharray: 1175.41; stroke-dashoffset: 1175.41; animation-delay: 0.714286s; animation-duration: 1.38937s;"></path><path fill="rgb(0,0,0)" stroke="rgb(0,0,0)" stroke-width="null" opacity="0" d="M 0 0 L 1920 0 L 1920 1080 L 0 1080 L 0 0 Z M 1296 429 L 1291 437 L 1184 678 L 1185 680 L 1197 680 L 1201 673 Q 1249 558 1301 447 L 1403 678 L 1404 680 L 1416 680 L 1414 673 L 1306 431 Q 1304 427 1296 429 Z M 45 438 L 45 688 L 46 688 L 57 688 L 58 459 L 237 685 L 240 687 L 250 688 L 250 439 L 250 438 L 238 438 Q 236 549 237 664 L 57 440 L 57 438 L 45 438 Z M 507 438 L 505 440 L 616 688 L 617 689 L 627 689 L 732 454 Q 731 451 734 452 L 838 688 L 840 689 L 850 689 L 956 452 L 964 469 L 1061 688 L 1063 689 L 1073 689 L 1184 440 L 1183 438 L 1172 438 L 1157 469 L 1071 666 L 1068 671 Q 1015 557 965 440 L 964 438 L 948 438 L 846 669 Q 847 672 844 671 L 742 440 L 741 438 L 725 438 L 623 670 Q 624 672 621 671 L 519 440 L 519 438 L 507 438 Z M 1417 438 L 1420 449 L 1527 688 L 1528 689 L 1538 689 L 1547 671 L 1649 441 L 1649 438 L 1638 438 L 1632 448 Q 1585 560 1534 670 Q 1535 672 1532 671 L 1532 669 L 1430 440 L 1430 438 L 1417 438 Z M 299 439 L 299 687 L 476 687 L 476 677 L 476 676 L 311 676 L 311 450 L 474 450 L 474 440 L 474 439 L 299 439 Z M 1682 439 L 1682 450 L 1683 450 L 1845 450 L 1845 676 L 1680 676 L 1680 687 L 1681 687 L 1857 687 L 1857 439 L 1682 439 Z " style="stroke-dasharray: 15333.8; stroke-dashoffset: 15333.8; animation-delay: 0.857143s; animation-duration: 2.19416s;"></path></svg>