<svg width="21" height="21" viewBox="0 0 21 21" fill="none" xmlns="http://www.w3.org/2000/svg">
<g clip-path="url(#clip0)">
<path d="M20.6553 4.1663C19.9115 4.49255 19.119 4.7088 18.2928 4.8138C19.1428 4.3063 19.7915 3.5088 20.0965 2.54755C19.304 3.02005 18.429 3.3538 17.4965 3.54005C16.744 2.7388 15.6715 2.24255 14.5015 2.24255C12.2315 2.24255 10.404 4.08505 10.404 6.3438C10.404 6.6688 10.4315 6.9813 10.499 7.2788C7.09027 7.11255 4.07402 5.4788 2.04777 2.99005C1.69402 3.6038 1.48652 4.3063 1.48652 5.06255C1.48652 6.48255 2.21777 7.7413 3.30777 8.47005C2.64902 8.45755 2.00277 8.2663 1.45527 7.96505C1.45527 7.97755 1.45527 7.9938 1.45527 8.01005C1.45527 10.0026 2.87652 11.6576 4.74027 12.0388C4.40652 12.1301 4.04277 12.1738 3.66527 12.1738C3.40277 12.1738 3.13777 12.1588 2.88902 12.1038C3.42027 13.7276 4.92777 14.9213 6.72027 14.9601C5.32527 16.0513 3.55402 16.7088 1.63652 16.7088C1.30027 16.7088 0.977773 16.6938 0.655273 16.6526C2.47152 17.8238 4.62402 18.4926 6.94527 18.4926C14.4903 18.4926 18.6153 12.2426 18.6153 6.82505C18.6153 6.6438 18.609 6.4688 18.6003 6.29505C19.414 5.71755 20.0978 4.9963 20.6553 4.1663Z" fill="black"/>
</g>
<defs>
<clipPath id="clip0">
<rect width="20" height="20" fill="white" transform="translate(0.655273 0.367554)"/>
</clipPath>
</defs>
</svg>
