<svg width="21" height="21" viewBox="0 0 21 21" fill="none" xmlns="http://www.w3.org/2000/svg">
<g clip-path="url(#clip0)">
<path d="M14.4053 0.367554H6.90527C3.45402 0.367554 0.655273 3.1663 0.655273 6.61755V14.1176C0.655273 17.5688 3.45402 20.3676 6.90527 20.3676H14.4053C17.8565 20.3676 20.6553 17.5688 20.6553 14.1176V6.61755C20.6553 3.1663 17.8565 0.367554 14.4053 0.367554ZM18.7803 14.1176C18.7803 16.5301 16.8178 18.4926 14.4053 18.4926H6.90527C4.49277 18.4926 2.53027 16.5301 2.53027 14.1176V6.61755C2.53027 4.20505 4.49277 2.24255 6.90527 2.24255H14.4053C16.8178 2.24255 18.7803 4.20505 18.7803 6.61755V14.1176Z" fill="black"/>
<path d="M10.6553 5.36755C7.89402 5.36755 5.65527 7.6063 5.65527 10.3676C5.65527 13.1288 7.89402 15.3676 10.6553 15.3676C13.4165 15.3676 15.6553 13.1288 15.6553 10.3676C15.6553 7.6063 13.4165 5.36755 10.6553 5.36755ZM10.6553 13.4926C8.93277 13.4926 7.53027 12.0901 7.53027 10.3676C7.53027 8.6438 8.93277 7.24255 10.6553 7.24255C12.3778 7.24255 13.7803 8.6438 13.7803 10.3676C13.7803 12.0901 12.3778 13.4926 10.6553 13.4926Z" fill="black"/>
<path d="M16.0305 5.65879C16.3985 5.65879 16.6968 5.3605 16.6968 4.99254C16.6968 4.62458 16.3985 4.32629 16.0305 4.32629C15.6625 4.32629 15.3643 4.62458 15.3643 4.99254C15.3643 5.3605 15.6625 5.65879 16.0305 5.65879Z" fill="black"/>
</g>
<defs>
<clipPath id="clip0">
<rect width="20" height="20" fill="white" transform="translate(0.655273 0.367554)"/>
</clipPath>
</defs>
</svg>
